<svg width="165" height="144" viewBox="0 0 165 144" fill="none" xmlns="http://www.w3.org/2000/svg">
<path opacity="0.3" d="M82.1432 0.000752221C60.4881 -0.0894949 39.6804 8.41182 24.2823 23.641C8.88426 38.8701 0.152382 59.5845 8.59628e-05 81.2428C-0.0155507 91.9264 2.10219 102.506 6.22915 112.36C10.3561 122.214 16.409 131.144 24.033 138.627C27.2619 141.8 31.6075 143.578 36.1342 143.578C40.6609 143.578 45.0066 141.8 48.2355 138.627C49.8243 137.063 51.0861 135.199 51.9474 133.142C52.8087 131.086 53.2521 128.879 53.2521 126.65C53.2521 124.42 52.8087 122.213 51.9474 120.157C51.0861 118.1 49.8243 116.236 48.2355 114.672C43.7929 110.302 40.2645 105.091 37.8561 99.3426C35.4476 93.5945 34.2074 87.4244 34.2074 81.192C34.2074 74.9596 35.4476 68.7895 37.8561 63.0414C40.2645 57.2933 43.7929 52.0822 48.2355 47.7119C57.2659 38.8259 69.4265 33.8459 82.0947 33.8459C94.7629 33.8459 106.924 38.8259 115.954 47.7119C120.397 52.0822 123.925 57.2933 126.333 63.0414C128.742 68.7895 129.982 74.9596 129.982 81.192C129.982 87.4244 128.742 93.5945 126.333 99.3426C123.925 105.091 120.397 110.302 115.954 114.672C114.365 116.235 113.103 118.099 112.242 120.155C111.381 122.211 110.937 124.418 110.937 126.647C110.937 128.876 111.381 131.083 112.242 133.139C113.103 135.195 114.365 137.059 115.954 138.622C119.183 141.795 123.529 143.573 128.055 143.573C132.582 143.573 136.928 141.795 140.156 138.622C147.799 131.149 153.872 122.223 158.017 112.369C162.162 102.516 164.297 91.9331 164.296 81.2428C164.143 59.5828 155.41 38.867 140.01 23.6375C124.61 8.40811 103.8 -0.0920652 82.1432 0.000752221Z" fill="url(#paint0_linear_589_849)"/>
<defs>
<linearGradient id="paint0_linear_589_849" x1="142.141" y1="152.333" x2="38.3223" y2="45.0592" gradientUnits="userSpaceOnUse">
<stop stop-color="white"/>
<stop offset="1" stop-color="white" stop-opacity="0"/>
</linearGradient>
</defs>
</svg>
