<svg width="47" height="34" viewBox="0 0 47 34" fill="none" xmlns="http://www.w3.org/2000/svg">
<rect opacity="0.45" width="30.6988" height="22.8048" rx="3" transform="matrix(0.866044 0.499967 -0.866044 0.499967 20.1433 6.51221)" fill="url(#paint0_linear_591_380)"/>
<rect width="30.6988" height="22.8048" rx="3" transform="matrix(0.866044 0.499967 -0.866044 0.499967 20.1433 0.737671)" fill="white"/>
<path d="M24.4597 7.46152C23.5395 6.92579 22.2884 6.62288 20.9805 6.6192C19.6727 6.61551 18.415 6.91135 17.483 7.44186C17.026 7.70498 16.6644 8.01804 16.4195 8.36271C16.1746 8.70737 16.0513 9.0767 16.0569 9.44902C16.059 9.60683 16.1685 9.75774 16.3617 9.86925C16.5548 9.98076 16.8162 10.044 17.0896 10.0452C17.2242 10.0458 17.3577 10.0309 17.4823 10.0014C17.6069 9.97187 17.7202 9.92836 17.8154 9.87336C17.9107 9.81837 17.9861 9.753 18.0372 9.68106C18.0883 9.60912 18.1141 9.53205 18.1131 9.45433C18.1103 9.23707 18.1824 9.02159 18.3252 8.82045C18.468 8.61931 18.6787 8.43654 18.9451 8.2828C19.2114 8.12905 19.528 8.0074 19.8764 7.92494C20.2248 7.84249 20.5981 7.80087 20.9744 7.80252C21.7395 7.8058 22.4712 7.98254 23.0118 8.29463C23.5524 8.60672 23.8586 9.02915 23.8642 9.47082C23.8671 9.68808 23.795 9.90356 23.6522 10.1047C23.5093 10.3058 23.2986 10.4886 23.0323 10.6424C22.766 10.7961 22.4494 10.9178 22.101 11.0002C21.7526 11.0827 21.3793 11.1243 21.003 11.1226C20.8684 11.1221 20.7349 11.137 20.6102 11.1665C20.4856 11.196 20.3724 11.2395 20.2771 11.2945C20.1819 11.3495 20.1065 11.4149 20.0554 11.4868C20.0043 11.5587 19.9784 11.6358 19.9794 11.7135C19.9816 11.8713 20.0911 12.0222 20.2842 12.1338C20.4774 12.2453 20.7388 12.3085 21.0122 12.3097C21.6576 12.3136 22.298 12.2431 22.8959 12.1022C23.4938 11.9612 24.037 11.7528 24.4937 11.4891C25.4127 10.9511 25.9251 10.225 25.9187 9.47002C25.9124 8.71502 25.3877 7.99274 24.4597 7.46152Z" fill="#00D7D7"/>
<defs>
<linearGradient id="paint0_linear_591_380" x1="35.0044" y1="15.2466" x2="18.6644" y2="36.2024" gradientUnits="userSpaceOnUse">
<stop stop-color="white"/>
<stop offset="1" stop-color="white" stop-opacity="0"/>
</linearGradient>
</defs>
</svg>
