<svg width="33" height="28" viewBox="0 0 33 28" fill="none" xmlns="http://www.w3.org/2000/svg">
<path d="M16.5 0.117816C12.1658 0.100265 8.00115 1.73029 4.91916 4.65053C1.83717 7.57076 0.0893344 11.5429 0.0588537 15.6961C0.0558559 17.7443 0.479684 19.7725 1.30548 21.6616C2.13128 23.5508 3.34242 25.263 4.86788 26.6977C5.51411 27.3061 6.38385 27.6471 7.28983 27.6471C8.19581 27.6471 9.06555 27.3061 9.71178 26.6977C10.0298 26.3978 10.2823 26.0403 10.4547 25.646C10.6271 25.2517 10.7158 24.8285 10.7158 24.401C10.7158 23.9735 10.6271 23.5503 10.4547 23.156C10.2823 22.7617 10.0298 22.4042 9.71178 22.1043C8.82249 21.2663 8.1162 20.267 7.63408 19.1647C7.15196 18.0624 6.90367 16.8792 6.90367 15.684C6.90367 14.4888 7.15196 13.3056 7.63408 12.2033C8.1162 11.101 8.82249 10.1017 9.71178 9.2637C11.5193 7.55974 13.9533 6.60479 16.4889 6.60479C19.0245 6.60479 21.4585 7.55974 23.266 9.2637C24.1553 10.1017 24.8616 11.101 25.3437 12.2033C25.8258 13.3056 26.0741 14.4888 26.0741 15.684C26.0741 16.8792 25.8258 18.0624 25.3437 19.1647C24.8616 20.267 24.1553 21.2663 23.266 22.1043C22.948 22.4042 22.6955 22.7617 22.5231 23.156C22.3507 23.5503 22.2619 23.9735 22.2619 24.401C22.2619 24.8285 22.3507 25.2517 22.5231 25.646C22.6955 26.0403 22.948 26.3978 23.266 26.6977C23.9122 27.3061 24.782 27.6471 25.6879 27.6471C26.5939 27.6471 27.4637 27.3061 28.1099 26.6977C29.6394 25.2648 30.8546 23.5534 31.6843 21.6641C32.514 19.7749 32.9413 17.7458 32.9412 15.6961C32.9107 11.5429 31.1629 7.57076 28.0809 4.65053C24.9989 1.73029 20.8343 0.100265 16.5 0.117816Z" fill="white"/>
</svg>
